# xmcd
#
# Track frame offsets: 
#        150
#        25775
#        37502
#        55315
#        67502
#        93095
#        109142
#        125067
#        140070
#        156467
#        179750
#
# Disc length: 2558 seconds
#
# Revision: 8
# Processed by: cddbd v1.5.2PL0 Copyright (c) Steve Scherf et al.
# Submitted via: ExactAudioCopy v0.99pb5
#
DISCID=9009fc0b
DTITLE=Saffire - The Uppity Blues Women
DYEAR=1990
DGENRE=Blues
TTITLE0=Middle Aged Blues Boogie
TTITLE1=Take It On Back
TTITLE2=Annie's Blues
TTITLE3=Even Yuppies Get the Blues
TTITLE4=Drown In My Own Tears
TTITLE5=Three Time Loser
TTITLE6=Fess Up When You Mess Up
TTITLE7=Silent Thunder In My Heart
TTITLE8=School Teacher's Blues
TTITLE9=I Almost Lost My Mind
TTITLE10=Wild Women Don't Have the Blues
EXTD=LABEL =Alligator Records and Artist Mgmt., Inc.\nID =ALCD4780\nUP
EXTD=C =014551-4780-27\nCOPYRIGHT =1990
EXTT0=
EXTT1=
EXTT2=
EXTT3=
EXTT4=
EXTT5=
EXTT6=
EXTT7=
EXTT8=
EXTT9=
EXTT10=
PLAYORDER=
